# xmcd
#
# Track frame offsets: 
#        182
#        12412
#        18125
#        30982
#        40755
#        51915
#        63615
#        73617
#        82855
#        100020
#        108220
#        124370
#        141320
#        154397
#        165157
#        175045
#        195010
#        212665
#        228775
#        244612
#        266422
#
# Disc length: 3695 seconds
#
# Revision: 2
# Processed by: cddbd v1.5.2PL0 Copyright (c) Steve Scherf et al.
# Submitted via: ExactAudioCopy v0.99pb5
#
DISCID=020e6d15
DTITLE=The Nitty Gritty Dirt Band - Will The Circle Be Unbroken [CD
DTITLE=2)
DYEAR=1972
DGENRE=Country
TTITLE0=Lonesome Filddle Blues
TTITLE1=Cannonball Rag (with Merle Travis)
TTITLE2=Avalanche
TTITLE3=Flint Hill Special
TTITLE4=Togary Mountain
TTITLE5=Earl's Breakdown
TTITLE6=Orange Blossom Special (with Vassar Clements)
TTITLE7=Wabash Cannonball
TTITLE8=Lost Highway
TTITLE9=Doc Watson and Merle Travis First Meeting Dialogue
TTITLE10=Way Downtown (with Doc Watson)
TTITLE11=Down Yonder (with Doc Watson)
TTITLE12=Pins And Needles (In My Heart) (with Roy Acuff)
TTITLE13=Honky Tonk Blues
TTITLE14=Sailin' On To Hawaii (with Pete Kirby)
TTITLE15=I'm Thinking Tonight Of My Blue Eyes
TTITLE16=I Am A Pilgrim
TTITLE17=Wildwood Flower (with Maybelle Carter)
TTITLE18=Soldier's Joy
TTITLE19=Will The Circle Be Unbroken
TTITLE20=Both Sides Now (with Randy Scruggs)
EXTD=
EXTT0=
EXTT1=
EXTT2=
EXTT3=
EXTT4=
EXTT5=
EXTT6=
EXTT7=
EXTT8=
EXTT9=
EXTT10=
EXTT11=
EXTT12=
EXTT13=
EXTT14=
EXTT15=
EXTT16=
EXTT17=
EXTT18=
EXTT19=
EXTT20=
PLAYORDER=
